PathFileType	4	(X/Y/Z)	output.trc
DataRate	CameraRate	NumFrames	NumMarkers	Units	OrigDataRate	OrigDataStartFrame	OrigNumFrames
100	100	16	23	m	100	3093	6185
Frame#	Time	C7			T8			EL			EM			US			RS			AA			Fore_Clus_1			Fore_Clus_2			Fore_Clus_3			Fore_Clus_4			Hum_Clus_1			Hum_Clus_2			Hum_Clus_3			Hum_Clus_4			Thor_Clus_1			Thor_Clus_2			Thor_Clus_3			Thor_Clus_4			IJ			PX			GH			Thor_Clus_5		
		X1	Y1	Z1	X2	Y2	Z2	X3	Y3	Z3	X4	Y4	Z4	X5	Y5	Z5	X6	Y6	Z6	X7	Y7	Z7	X8	Y8	Z8	X9	Y9	Z9	X10	Y10	Z10	X11	Y11	Z11	X12	Y12	Z12	X13	Y13	Z13	X14	Y14	Z14	X15	Y15	Z15	X16	Y16	Z16	X17	Y17	Z17	X18	Y18	Z18	X19	Y19	Z19	X20	Y20	Z20	X21	Y21	Z21	X22	Y22	Z22	X23	Y23	Z23
3092	30.920000	-0.089260	1.471470	-0.128320	-0.100760	1.235426	-0.154517	-0.180944	1.108667	0.180537	-0.179297	1.077167	0.123303	0.077814	1.059252	0.110925	0.081404	1.107888	0.087472	-0.217829	1.377800	0.028202	0.020655	1.071788	0.160884	0.072719	1.070795	0.144985	0.071296	1.098230	0.139441	0.017741	1.115725	0.152172	-0.167199	1.212287	0.161600	-0.223664	1.207180	0.141188	-0.233447	1.266778	0.121039	-0.176795	1.279077	0.130392	0.047796	1.383812	-0.005668	0.016535	1.335970	0.056681	0.010710	1.380207	0.019506	0.068965	1.341319	0.019398	-0.016252	1.388737	-0.038678	0.029179	1.181114	0.020170	-0.189160	1.354177	-0.005810	0.006602	1.354694	0.045159
3093	30.930000	-0.088841	1.471706	-0.128138	-0.100540	1.235715	-0.154724	-0.183352	1.106414	0.177498	-0.180411	1.075661	0.119910	0.077362	1.059761	0.114119	0.081212	1.108572	0.091076	-0.217712	1.377917	0.028062	0.018888	1.071634	0.162514	0.071429	1.071214	0.148461	0.069849	1.098300	0.142646	0.015750	1.115553	0.154257	-0.169461	1.210342	0.160167	-0.225615	1.205175	0.138644	-0.235237	1.265133	0.119121	-0.178732	1.277454	0.129620	0.047882	1.383709	-0.005483	0.016547	1.335790	0.056770	0.010810	1.380069	0.019687	0.069089	1.341141	0.019573	-0.016035	1.388759	-0.038529	0.029109	1.180997	0.020051	-0.188793	1.354276	-0.005812	0.006693	1.354530	0.045308
3094	30.940000	-0.088444	1.471896	-0.127968	-0.100327	1.235955	-0.154909	-0.185931	1.104030	0.174176	-0.181513	1.074080	0.116260	0.076735	1.060404	0.117856	0.080848	1.109396	0.095244	-0.217597	1.378002	0.027936	0.016698	1.071657	0.164659	0.069788	1.071702	0.152012	0.068082	1.098867	0.146508	0.013594	1.115489	0.156489	-0.172007	1.208166	0.158409	-0.227645	1.203086	0.135674	-0.237171	1.263311	0.116861	-0.180899	1.275697	0.128744	0.048040	1.383643	-0.005218	0.016540	1.335652	0.056810	0.010959	1.379916	0.019907	0.069174	1.340966	0.019736	-0.015827	1.388753	-0.038388	0.029053	1.180866	0.019949	-0.188411	1.354339	-0.005844	0.006801	1.354435	0.045502
3095	30.950000	-0.088080	1.472037	-0.127812	-0.100121	1.236140	-0.155069	-0.188643	1.101549	0.170588	-0.182568	1.072449	0.112389	0.075895	1.061190	0.122152	0.080267	1.110366	0.099994	-0.217490	1.378047	0.027821	0.014283	1.071728	0.167128	0.067757	1.072357	0.156247	0.066010	1.099554	0.150787	0.011069	1.115607	0.159006	-0.174754	1.205875	0.156629	-0.229870	1.200814	0.132533	-0.239277	1.261291	0.114439	-0.183395	1.273777	0.127801	0.048219	1.383521	-0.004992	0.016578	1.335341	0.057018	0.011103	1.379734	0.020107	0.069274	1.340797	0.019894	-0.015634	1.388721	-0.038254	0.029011	1.180723	0.019868	-0.188020	1.354372	-0.005900	0.006892	1.354338	0.045679
3096	30.960000	-0.087754	1.472129	-0.127669	-0.099919	1.236271	-0.155208	-0.191446	1.099004	0.166762	-0.183545	1.070799	0.108342	0.074800	1.062125	0.127015	0.079423	1.111490	0.105334	-0.217396	1.378047	0.027714	0.011585	1.071879	0.169979	0.065403	1.073264	0.160865	0.063516	1.100404	0.155620	0.008149	1.115729	0.161859	-0.177827	1.203556	0.154674	-0.232229	1.198553	0.129080	-0.241562	1.259172	0.111629	-0.186140	1.271812	0.126664	0.048399	1.383393	-0.004717	0.016647	1.335147	0.057129	0.011208	1.379586	0.020302	0.069351	1.340630	0.020035	-0.015461	1.388664	-0.038126	0.028984	1.180571	0.019809	-0.187627	1.354380	-0.005970	0.006976	1.354164	0.045790
3097	30.970000	-0.087482	1.472170	-0.127538	-0.099726	1.236345	-0.155320	-0.194288	1.096435	0.162729	-0.184409	1.069162	0.104168	0.073395	1.063193	0.132443	0.078258	1.112752	0.111262	-0.217323	1.377994	0.027623	0.008523	1.072136	0.173048	0.062592	1.074167	0.166127	0.060468	1.101454	0.160852	0.004821	1.115983	0.165067	-0.181053	1.201038	0.152612	-0.234744	1.196115	0.125384	-0.244017	1.256927	0.108582	-0.189098	1.269752	0.125354	0.048559	1.383267	-0.004474	0.016661	1.334992	0.057172	0.011326	1.379414	0.020478	0.069443	1.340474	0.020180	-0.015317	1.388584	-0.038005	0.028976	1.180415	0.019771	-0.187241	1.354376	-0.006045	0.007074	1.353867	0.045834
3098	30.980000	-0.087258	1.472167	-0.127421	-0.099536	1.236369	-0.155413	-0.197126	1.093877	0.158527	-0.185144	1.067566	0.099919	0.071640	1.064397	0.138418	0.076728	1.114156	0.117766	-0.217273	1.377894	0.027535	0.004981	1.072378	0.176480	0.059445	1.075228	0.171433	0.057015	1.102577	0.166512	0.001046	1.116204	0.168499	-0.184583	1.198703	0.150510	-0.237214	1.193704	0.121412	-0.246437	1.254733	0.105086	-0.192231	1.267668	0.124005	0.048726	1.383143	-0.004161	0.016684	1.334797	0.057280	0.011384	1.379272	0.020643	0.069523	1.340317	0.020362	-0.015201	1.388488	-0.037889	0.028983	1.180259	0.019754	-0.186868	1.354370	-0.006112	0.007111	1.353673	0.045945
3099	30.990000	-0.087089	1.472125	-0.127317	-0.099352	1.236347	-0.155487	-0.199913	1.091368	0.154200	-0.185730	1.066041	0.095649	0.069481	1.065714	0.144919	0.074777	1.115678	0.124823	-0.217248	1.377748	0.027455	0.001102	1.072568	0.180104	0.055554	1.076295	0.177422	0.052983	1.103639	0.172560	-0.003043	1.116458	0.172268	-0.188246	1.196328	0.148224	-0.239711	1.191325	0.117228	-0.248899	1.252307	0.101571	-0.195433	1.265462	0.122327	0.048832	1.383008	-0.003940	0.016679	1.334611	0.057376	0.011424	1.379140	0.020793	0.069576	1.340179	0.020536	-0.015117	1.388379	-0.037778	0.029006	1.180107	0.019757	-0.186518	1.354373	-0.006165	0.007118	1.353487	0.046048
3100	31.000000	-0.086970	1.472051	-0.127226	-0.099172	1.236288	-0.155546	-0.202611	1.088943	0.149793	-0.186164	1.064612	0.091412	0.066868	1.067125	0.151910	0.072354	1.117300	0.132400	-0.217249	1.377563	0.027377	-0.003154	1.072672	0.184035	0.051246	1.077158	0.183605	0.048518	1.104597	0.178953	-0.007608	1.116723	0.176512	-0.191912	1.194023	0.145767	-0.242131	1.188999	0.112838	-0.251380	1.250118	0.097776	-0.198793	1.263497	0.120694	0.048897	1.382905	-0.003746	0.016670	1.334451	0.057487	0.011444	1.379034	0.020927	0.069588	1.340037	0.020756	-0.015063	1.388264	-0.037674	0.029042	1.179965	0.019777	-0.186198	1.354396	-0.006198	0.007118	1.353338	0.046151
3101	31.010000	-0.086888	1.471958	-0.127150	-0.098991	1.236205	-0.155598	-0.205187	1.086632	0.145356	-0.186451	1.063300	0.087258	0.063763	1.068612	0.159348	0.069418	1.119004	0.140454	-0.217274	1.377352	0.027290	-0.007793	1.072709	0.188150	0.046534	1.078056	0.190439	0.043702	1.105315	0.185692	-0.012468	1.116915	0.180941	-0.195516	1.191994	0.143097	-0.244407	1.186869	0.108358	-0.253821	1.248198	0.093911	-0.202436	1.261787	0.118956	0.048930	1.382826	-0.003570	0.016628	1.334308	0.057581	0.011422	1.378935	0.021068	0.069592	1.339930	0.020949	-0.015033	1.388148	-0.037576	0.029085	1.179834	0.019810	-0.185911	1.354447	-0.006207	0.007067	1.353224	0.046258
3102	31.020000	-0.086840	1.471853	-0.127088	-0.098814	1.236106	-0.155643	-0.207613	1.084463	0.140936	-0.186599	1.062122	0.083229	0.060111	1.070140	0.167184	0.065919	1.120751	0.148933	-0.217319	1.377126	0.027200	-0.012856	1.072834	0.192611	0.041397	1.078794	0.197332	0.038357	1.106083	0.192821	-0.017493	1.116840	0.185288	-0.199001	1.189982	0.140424	-0.246600	1.184847	0.103864	-0.256417	1.246229	0.089883	-0.205809	1.260014	0.117100	0.048824	1.382778	-0.003452	0.016577	1.334179	0.057693	0.011429	1.378850	0.021185	0.069575	1.339825	0.021149	-0.015027	1.388038	-0.037486	0.029134	1.179720	0.019854	-0.185665	1.354534	-0.006196	0.007039	1.353108	0.046354
3103	31.030000	-0.086804	1.471750	-0.127043	-0.098631	1.236008	-0.155692	-0.209876	1.082456	0.136577	-0.186629	1.061086	0.079360	0.055887	1.071693	0.175363	0.061829	1.122525	0.157782	-0.217379	1.376903	0.027089	-0.018099	1.073003	0.197085	0.035720	1.079515	0.204551	0.032345	1.107022	0.200244	-0.023198	1.116808	0.189709	-0.202418	1.188063	0.137772	-0.248642	1.182937	0.099447	-0.258124	1.244467	0.085474	-0.208999	1.258313	0.114906	0.047837	1.382671	-0.003706	0.016486	1.334068	0.057777	0.011337	1.378733	0.021294	0.069564	1.339731	0.021329	-0.015032	1.387941	-0.037403	0.029182	1.179625	0.019905	-0.185456	1.354660	-0.006169	0.006959	1.353034	0.046435
3104	31.040000	-0.086770	1.471659	-0.127015	-0.098445	1.235919	-0.155747	-0.211964	1.080627	0.132321	-0.186561	1.060198	0.075681	0.051050	1.073237	0.183823	0.057111	1.124290	0.166934	-0.217447	1.376696	0.026960	-0.023928	1.073296	0.201861	0.029307	1.080521	0.212042	0.026069	1.107785	0.207512	-0.029267	1.117144	0.194554	-0.205546	1.186383	0.134967	-0.250257	1.181313	0.094814	-0.260011	1.242812	0.081478	-0.212104	1.256846	0.112789	0.047995	1.382637	-0.003480	0.016389	1.333985	0.057693	0.011287	1.378683	0.021421	0.069514	1.339652	0.021527	-0.015042	1.387860	-0.037330	0.029225	1.179550	0.019959	-0.185283	1.354828	-0.006135	0.006877	1.352817	0.046408
3105	31.050000	-0.086720	1.471589	-0.127006	-0.098251	1.235851	-0.155814	-0.213877	1.078988	0.128206	-0.186420	1.059457	0.072210	0.045577	1.074751	0.192500	0.051742	1.126020	0.176320	-0.217515	1.376522	0.026804	-0.030245	1.073695	0.206713	0.022409	1.081424	0.219624	0.018953	1.108731	0.215192	-0.035763	1.117463	0.199235	-0.208672	1.184940	0.132102	-0.251704	1.179806	0.090406	-0.261734	1.241354	0.077476	-0.214954	1.255440	0.110582	0.047981	1.382606	-0.003344	0.016270	1.333907	0.057727	0.011234	1.378645	0.021524	0.069477	1.339600	0.021694	-0.015048	1.387801	-0.037267	0.029258	1.179497	0.020013	-0.185140	1.355038	-0.006102	0.006744	1.352849	0.046467
3106	31.060000	-0.086634	1.471552	-0.127017	-0.098044	1.235818	-0.155899	-0.215624	1.077541	0.124263	-0.186235	1.058858	0.068963	0.039453	1.076221	0.201331	0.045709	1.127701	0.185873	-0.217576	1.376397	0.026614	-0.036981	1.073985	0.211550	0.014804	1.082307	0.227223	0.011508	1.109612	0.222591	-0.042857	1.117963	0.204144	-0.211284	1.183470	0.129552	-0.253043	1.178507	0.086344	-0.263213	1.240039	0.073791	-0.217593	1.254311	0.108427	0.048002	1.382584	-0.003213	0.016172	1.333887	0.057777	0.011199	1.378631	0.021599	0.069433	1.339568	0.021855	-0.015037	1.387767	-0.037215	0.029278	1.179465	0.020063	-0.185018	1.355286	-0.006079	0.006661	1.352881	0.046548
3107	31.070000	-0.086506	1.471551	-0.127046	-0.097828	1.235821	-0.156001	-0.217213	1.076288	0.120518	-0.186027	1.058393	0.065947	0.032659	1.077620	0.210245	0.038996	1.129303	0.195510	-0.217622	1.376330	0.026395	-0.044151	1.074265	0.216363	0.006398	1.083222	0.234941	0.003220	1.110485	0.230174	-0.050265	1.118358	0.209183	-0.213867	1.182241	0.127048	-0.254196	1.177426	0.082516	-0.264476	1.238984	0.070220	-0.220026	1.253201	0.106421	0.048026	1.382594	-0.003087	0.016074	1.333883	0.057838	0.011171	1.378617	0.021652	0.069419	1.339551	0.022001	-0.015004	1.387759	-0.037174	0.029283	1.179453	0.020109	-0.184910	1.355569	-0.006078	0.006585	1.352881	0.046585
